<svg id="visual" viewBox="0 0 900 600" width="900" height="600" xmlns="http://www.w3.org/2000/svg" xmlns:xlink="http://www.w3.org/1999/xlink" version="1.1"><rect x="0" y="0" width="900" height="600" fill="#161313"></rect><path d="M0 244L100 262L200 252L300 237L400 219L500 300L600 258L700 260L800 228L900 282L900 601L800 601L700 601L600 601L500 601L400 601L300 601L200 601L100 601L0 601Z" fill="#2c2d2d"></path><path d="M0 356L100 338L200 341L300 291L400 381L500 341L600 296L700 387L800 301L900 274L900 601L800 601L700 601L600 601L500 601L400 601L300 601L200 601L100 601L0 601Z" fill="#4a4b4b"></path><path d="M0 368L100 345L200 388L300 445L400 428L500 359L600 409L700 380L800 428L900 411L900 601L800 601L700 601L600 601L500 601L400 601L300 601L200 601L100 601L0 601Z" fill="#6a6b6b"></path><path d="M0 425L100 474L200 471L300 451L400 456L500 423L600 433L700 442L800 450L900 410L900 601L800 601L700 601L600 601L500 601L400 601L300 601L200 601L100 601L0 601Z" fill="#8c8d8d"></path><path d="M0 504L100 494L200 479L300 545L400 545L500 541L600 493L700 499L800 519L900 535L900 601L800 601L700 601L600 601L500 601L400 601L300 601L200 601L100 601L0 601Z" fill="#b0b0b0"></path></svg>